<svg width="24" height="24" viewBox="0 0 24 24" fill="none" xmlns="http://www.w3.org/2000/svg">
<g id="Frame" clip-path="url(#clip0_138_733)">
<g id="SVGRepo_iconCarrier">
<g id="Icons">
<g id="Color-">
<g id="Amazon">
<path id="Vector" fill-rule="evenodd" clip-rule="evenodd" d="M12.7012 12.9798C12.3301 13.7209 11.6937 14.1981 11.0051 14.3591C10.9007 14.3591 10.7412 14.4113 10.5818 14.4113C9.4176 14.4113 8.72898 13.5106 8.72898 12.1864C8.72898 10.4894 9.7351 9.696 11.0051 9.32329C11.6937 9.16518 12.4896 9.11153 13.284 9.11153V9.74824C13.284 10.9666 13.3362 11.9195 12.7012 12.9798ZM13.284 6.67624C12.5954 6.72847 11.7995 6.78071 11.0051 6.88518C9.78731 7.04612 8.56953 7.25788 7.56482 7.73506C5.60481 8.52988 4.27979 10.2254 4.27979 12.7144C4.27979 15.8428 6.29201 17.4311 8.83623 17.4311C9.68288 17.4311 10.3715 17.3238 11.0051 17.1671C12.014 16.848 12.8593 16.2649 13.8654 15.2047C14.4482 15.9995 14.609 16.3722 15.6137 17.2193C15.879 17.3238 16.1443 17.3238 16.3546 17.1671C16.991 16.6362 18.1043 15.6819 18.6857 15.1525C18.951 14.9407 18.8988 14.6216 18.7379 14.3591C18.1565 13.6165 17.5723 12.9798 17.5723 11.5496V6.78071C17.5723 4.76753 17.7332 2.91247 16.2501 1.536C15.0324 0.424941 13.1246 0 11.6415 0H11.0051C8.30565 0.156706 5.44676 1.32282 4.80895 4.66165C4.70312 5.08659 5.02202 5.24471 5.23369 5.29694L8.19982 5.66824C8.51732 5.61459 8.67677 5.34918 8.72898 5.08659C8.99286 3.92047 9.94676 3.33741 11.0051 3.23012H11.2182C11.8546 3.23012 12.5432 3.49553 12.9129 4.02635C13.3362 4.66165 13.284 5.51012 13.284 6.25271V6.67624Z" fill="#343B45"/>
<path id="Fill-237" fill-rule="evenodd" clip-rule="evenodd" d="M23.9972 17.9732V17.9718C23.9859 17.7219 23.9337 17.5313 23.8293 17.3732L23.818 17.3576L23.8053 17.3421C23.6994 17.2264 23.5978 17.1826 23.4878 17.1346C23.159 17.0075 22.6806 16.9398 22.1049 16.9384C21.6914 16.9384 21.2357 16.9779 20.7771 17.0781L20.7756 17.0471L20.3142 17.2009L20.3057 17.2052L20.0447 17.2899V17.3012C19.7385 17.4282 19.4605 17.5864 19.2023 17.7741C19.0414 17.8941 18.9088 18.0536 18.9017 18.2979C18.8975 18.4306 18.9652 18.5831 19.0767 18.6734C19.1882 18.7638 19.318 18.7948 19.4323 18.7948C19.4591 18.7948 19.4845 18.7934 19.5071 18.7892L19.5296 18.7878L19.5466 18.7849C19.7723 18.7369 20.1011 18.7045 20.4864 18.6508C20.8166 18.6141 21.1665 18.5873 21.4699 18.5873C21.6844 18.5859 21.8777 18.6014 22.0103 18.6296C22.0767 18.6438 22.1261 18.6607 22.1529 18.6748C22.1627 18.6776 22.1698 18.6819 22.174 18.6847C22.1797 18.7031 22.1881 18.7511 22.1867 18.8174C22.1896 19.0715 22.0823 19.5431 21.9342 20.0033C21.7902 20.4635 21.6152 20.9252 21.4995 21.2315C21.4713 21.3021 21.453 21.3798 21.453 21.4645C21.4501 21.5873 21.5009 21.7369 21.6082 21.8358C21.7126 21.9346 21.8481 21.9741 21.961 21.9741H21.9666C22.1359 21.9727 22.2799 21.9049 22.404 21.8075C23.5753 20.7544 23.9831 19.0715 24 18.1242L23.9972 17.9732ZM20.5245 19.4329C20.4045 19.4315 20.2818 19.4598 20.1675 19.5134C20.039 19.5642 19.9078 19.6235 19.7836 19.6758L19.6016 19.752L19.3645 19.8466V19.8494C16.7893 20.8941 14.0842 21.5068 11.5809 21.5605C11.4892 21.5633 11.3961 21.5633 11.3072 21.5633C7.37019 21.5661 4.15853 19.7393 0.918648 17.9393C0.80576 17.88 0.688639 17.8489 0.575751 17.8489C0.430408 17.8489 0.280831 17.904 0.172177 18.0056C0.063522 18.1087 -0.00138855 18.2569 2.25448e-05 18.408C-0.00138855 18.6042 0.104444 18.7849 0.252609 18.9021C3.29353 21.5435 6.62654 23.9972 11.1096 24C11.1971 24 11.286 23.9972 11.3749 23.9958C14.2267 23.9322 17.4511 22.968 19.9544 21.3953L19.9699 21.3854C20.2973 21.1892 20.6247 20.9661 20.9337 20.7191C21.1256 20.5765 21.2582 20.3534 21.2582 20.1219C21.2498 19.7111 20.9012 19.4329 20.5245 19.4329Z" fill="#FF9A00"/>
</g>
</g>
</g>
</g>
</g>
<defs>
<clipPath id="clip0_138_733">
<rect width="24" height="24" fill="white"/>
</clipPath>
</defs>
</svg>
