<svg width="24" height="24" viewBox="0 0 24 24" fill="none" xmlns="http://www.w3.org/2000/svg">
<g id="Frame">
<g id="SVGRepo_iconCarrier">
<path id="Vector" d="M5.7 10.2H7.5C9.3 10.2 10.2 9.3 10.2 7.5V5.7C10.2 3.9 9.3 3 7.5 3H5.7C3.9 3 3 3.9 3 5.7V7.5C3 9.3 3.9 10.2 5.7 10.2Z" fill="black" stroke="black" stroke-miterlimit="10" stroke-linecap="round" stroke-linejoin="round"/>
<path id="Vector_2" d="M16.4998 10.2H18.2998C20.0998 10.2 20.9998 9.3 20.9998 7.5V5.7C20.9998 3.9 20.0998 3 18.2998 3H16.4998C14.6998 3 13.7998 3.9 13.7998 5.7V7.5C13.7998 9.3 14.6998 10.2 16.4998 10.2Z" fill="black" stroke="black" stroke-miterlimit="10" stroke-linecap="round" stroke-linejoin="round"/>
<path id="Vector_3" d="M16.4998 20.9998H18.2998C20.0998 20.9998 20.9998 20.0998 20.9998 18.2998V16.4998C20.9998 14.6998 20.0998 13.7998 18.2998 13.7998H16.4998C14.6998 13.7998 13.7998 14.6998 13.7998 16.4998V18.2998C13.7998 20.0998 14.6998 20.9998 16.4998 20.9998Z" fill="black" stroke="black" stroke-miterlimit="10" stroke-linecap="round" stroke-linejoin="round"/>
<path id="Vector_4" d="M5.7 20.9998H7.5C9.3 20.9998 10.2 20.0998 10.2 18.2998V16.4998C10.2 14.6998 9.3 13.7998 7.5 13.7998H5.7C3.9 13.7998 3 14.6998 3 16.4998V18.2998C3 20.0998 3.9 20.9998 5.7 20.9998Z" fill="black" stroke="black" stroke-miterlimit="10" stroke-linecap="round" stroke-linejoin="round"/>
</g>
</g>
</svg>
