<svg width="24" height="24" viewBox="0 0 24 24" fill="none" xmlns="http://www.w3.org/2000/svg">
<g id="clicked">
<g id="SVGRepo_iconCarrier">
<path id="Vector" fill-rule="evenodd" clip-rule="evenodd" d="M4.72718 2.71244C5.03258 2.41324 5.46135 2.21816 6.27103 2.11151C7.10452 2.00172 8.2092 2 9.7931 2H14.2069C15.7908 2 16.8955 2.00172 17.729 2.11151C18.5387 2.21816 18.9674 2.41324 19.2728 2.71244C19.5782 3.01165 19.7773 3.43172 19.8862 4.22499C19.9982 5.04159 20 6.12387 20 7.67568V15.5135H7.34563C6.44305 15.5132 5.82716 15.513 5.29899 15.6517C4.82674 15.7756 4.38867 15.9781 4 16.2442V7.67568C4 6.12387 4.00176 5.04159 4.11382 4.225C4.22268 3.43172 4.42179 3.01165 4.72718 2.71244ZM7.58621 5.78378C7.12914 5.78378 6.75862 6.1468 6.75862 6.59459C6.75862 7.04239 7.12914 7.40541 7.58621 7.40541H16.4138C16.8709 7.40541 17.2414 7.04239 17.2414 6.59459C17.2414 6.1468 16.8709 5.78378 16.4138 5.78378H7.58621ZM6.75862 10.3784C6.75862 9.93058 7.12914 9.56757 7.58621 9.56757H13.1034C13.5605 9.56757 13.931 9.93058 13.931 10.3784C13.931 10.8262 13.5605 11.1892 13.1034 11.1892H7.58621C7.12914 11.1892 6.75862 10.8262 6.75862 10.3784Z" fill="black"/>
<path id="Vector_2" d="M7.47319 17.1353C6.39373 17.1353 6.01635 17.1423 5.72716 17.2182C4.93343 17.4266 4.30066 18.0046 4.0293 18.756C4.04608 19.1384 4.07237 19.4748 4.1136 19.7752C4.22246 20.5685 4.42157 20.9886 4.72696 21.2878C5.03236 21.587 5.46113 21.782 6.27081 21.8887C7.1043 21.9985 8.20898 22.0002 9.79288 22.0002H14.2067C15.7906 22.0002 16.8953 21.9985 17.7288 21.8887C18.5385 21.782 18.9672 21.587 19.2726 21.2878C19.4892 21.0755 19.6524 20.8025 19.7678 20.3786H7.58599C7.12892 20.3786 6.7584 20.0156 6.7584 19.5678C6.7584 19.12 7.12892 18.757 7.58599 18.757H19.9702C19.9907 18.291 19.997 17.7566 19.9989 17.1353H7.47319Z" fill="black"/>
</g>
</g>
</svg>
