<svg width="22" height="18" viewBox="0 0 22 18" fill="none" xmlns="http://www.w3.org/2000/svg">
<path d="M1 9C1 5.22876 1 3.34315 2.17157 2.17157C3.34315 1 5.22876 1 9 1H13C16.7712 1 18.6569 1 19.8284 2.17157C21 3.34315 21 5.22876 21 9C21 12.7712 21 14.6569 19.8284 15.8284C18.6569 17 16.7712 17 13 17H9C5.22876 17 3.34315 17 2.17157 15.8284C1 14.6569 1 12.7712 1 9Z" stroke="#475467" stroke-width="1.5"/>
<path opacity="0.5" d="M9 13.5H5" stroke="#475467" stroke-width="1.5" stroke-linecap="round"/>
<path opacity="0.5" d="M7 10.5H5" stroke="#475467" stroke-width="1.5" stroke-linecap="round"/>
<path opacity="0.5" d="M1 7H21" stroke="#475467" stroke-width="1.5" stroke-linecap="round"/>
<path opacity="0.5" d="M13 12C13 11.0572 13 10.5858 13.2929 10.2929C13.5858 10 14.0572 10 15 10C15.9428 10 16.4142 10 16.7071 10.2929C17 10.5858 17 11.0572 17 12C17 12.9428 17 13.4142 16.7071 13.7071C16.4142 14 15.9428 14 15 14C14.0572 14 13.5858 14 13.2929 13.7071C13 13.4142 13 12.9428 13 12Z" stroke="#475467" stroke-width="1.5"/>
</svg>
