<svg width="24" height="24" viewBox="0 0 24 24" fill="none" xmlns="http://www.w3.org/2000/svg">
<g id="Frame" clip-path="url(#clip0_139_1112)">
<g id="SVGRepo_iconCarrier">
<path id="Vector" d="M19.3515 2.79445C19.3942 2.80926 19.4312 2.83701 19.4574 2.87384C19.4836 2.91067 19.4977 2.95475 19.4977 2.99995C19.4977 3.04516 19.4836 3.08924 19.4574 3.12607C19.4312 3.1629 19.3942 3.19064 19.3515 3.20545L19.2838 3.00252L19.283 2.99995L19.2838 2.99738L19.3515 2.79445ZM19.3515 2.79445L19.1973 2.74308L19.2816 2.99591L19.3515 2.79445ZM12.7704 12.5129L12.7705 12.5132C13.0203 13.2624 13.4411 13.9431 13.9997 14.5014C14.5583 15.0597 15.2393 15.4802 15.9886 15.7296L18.3008 16.4999L15.987 17.2704L15.9867 17.2705C15.2375 17.5203 14.5568 17.9411 13.9985 18.4997C13.4402 19.0583 13.0197 19.7393 12.7703 20.4886L12 22.8008L11.2295 20.487L11.2295 20.4868C10.9799 19.7378 10.5593 19.0572 10.001 18.4989C9.44271 17.9407 8.76211 17.5201 8.01309 17.2704L8.01291 17.2704L5.69928 16.5L8.01291 15.7295L8.01309 15.7295C8.76211 15.4799 9.44271 15.0592 10.001 14.501C10.5593 13.9427 10.9799 13.2621 11.2295 12.5131L11.2295 12.5129L12 10.1993L12.7704 12.5129ZM6.17788 3.70194L6.17808 3.70253C6.51227 4.70316 7.29676 5.48764 8.29738 5.82183L8.29797 5.82203L8.83221 5.99995L8.29797 6.17788L8.29789 6.17791C7.80418 6.3424 7.35556 6.61961 6.98759 6.98758C6.61962 7.35556 6.3424 7.80417 6.17791 8.29789L6.17789 8.29797L5.99996 8.8322L5.82203 8.29797L5.82201 8.29789C5.65752 7.80417 5.3803 7.35556 5.01233 6.98758C4.64436 6.61961 4.19574 6.3424 3.70203 6.17791L3.70195 6.17788L3.16771 5.99995L3.70195 5.82203L3.70203 5.822C4.19574 5.65751 4.64436 5.38029 5.01233 5.01232C5.3803 4.64435 5.65752 4.19573 5.82201 3.70202L5.82203 3.70194L5.99996 3.1677L6.17788 3.70194ZM16.5007 1.84199C16.7447 2.34797 17.1534 2.75634 17.6596 3.00001C17.4087 3.12087 17.1793 3.28339 16.9814 3.48135C16.7834 3.67933 16.6208 3.90881 16.5 4.1597C16.3791 3.90881 16.2165 3.67933 16.0186 3.48135C15.8208 3.28359 15.5916 3.12119 15.3411 3.00037C15.8476 2.75674 16.2566 2.34822 16.5007 1.84199ZM16.3747 0.0436321L16.4493 0.148451L16.3747 0.0436321ZM18.8879 2.63992L19.1903 2.74075L18.8879 2.63992ZM18.7821 2.60467L18.043 2.85103L18.7821 2.60467Z" stroke="#475467" stroke-width="1.5"/>
</g>
</g>
<defs>
<clipPath id="clip0_139_1112">
<rect width="24" height="24" fill="white"/>
</clipPath>
</defs>
</svg>
