<svg width="24" height="24" viewBox="0 0 24 24" fill="none" xmlns="http://www.w3.org/2000/svg">
<path d="M4.58082 7.08981C4.84082 6.76981 5.31082 6.71977 5.63082 6.97977C5.95082 7.23977 6.00072 7.70981 5.74072 8.02981C4.61072 9.42981 3.98072 11.0898 3.92072 12.8298C3.76072 17.3098 7.28082 21.0898 11.7708 21.2398C16.2508 21.3998 20.0308 17.8798 20.1808 13.3898C20.3308 8.8998 16.8208 5.12977 12.3308 4.97977C11.7608 4.95977 11.1608 5.0098 10.5108 5.1398C10.4708 5.1498 10.4308 5.1398 10.3908 5.1398C10.2908 5.1898 10.1707 5.21976 10.0607 5.21976C9.89072 5.21976 9.73082 5.16977 9.59082 5.04977C9.27082 4.78977 9.22072 4.31978 9.47072 3.99978L11.4508 1.52981C11.7108 1.20981 12.1808 1.14976 12.5008 1.40976C12.8208 1.66976 12.8707 2.13981 12.6207 2.45981L11.7907 3.48978C11.9807 3.47978 12.1807 3.46977 12.3707 3.47977C17.6808 3.65977 21.8507 8.1398 21.6607 13.4498C21.4707 18.7598 17.0008 22.9298 11.6908 22.7398C6.38082 22.5498 2.21082 18.0798 2.40082 12.7698C2.50082 10.7098 3.24082 8.73981 4.58082 7.08981Z" fill="#D0D5DD"/>
<path d="M12.3806 16.9198H10.0906C9.68065 16.9198 9.34065 16.5798 9.34065 16.1698C9.34065 15.7598 9.68065 15.4198 10.0906 15.4198H12.3806C12.8106 15.4198 13.1606 15.0698 13.1606 14.6398C13.1606 14.2098 12.8106 13.8598 12.3806 13.8598H10.0906C9.85065 13.8598 9.6206 13.7398 9.4806 13.5498C9.3406 13.3598 9.30062 13.0998 9.38062 12.8698L10.1406 10.5798C10.2406 10.2698 10.5306 10.0698 10.8506 10.0698H13.9106C14.3206 10.0698 14.6606 10.4098 14.6606 10.8198C14.6606 11.2298 14.3206 11.5698 13.9106 11.5698H11.3906L11.1306 12.3598H12.3806C13.6406 12.3598 14.6606 13.3798 14.6606 14.6398C14.6606 15.8998 13.6406 16.9198 12.3806 16.9198Z" fill="#292D32"/>
</svg>
