<svg width="40" height="40" viewBox="0 0 40 40" fill="none" xmlns="http://www.w3.org/2000/svg">
<path d="M19.9513 36.6667C29.1562 36.6667 36.618 29.2047 36.618 20C36.618 10.7953 29.1562 3.33337 19.9513 3.33337C10.7466 3.33337 3.28467 10.7953 3.28467 20C3.28467 29.2047 10.7466 36.6667 19.9513 36.6667Z" fill="#F8F9FC"/>
<path d="M24.9492 17.0502L20.1158 14.2669C18.9158 13.5669 17.4658 13.5669 16.2658 14.2669C15.0658 14.9669 14.3491 16.2003 14.3491 17.6002V23.1836C14.3491 24.5669 15.0658 25.8169 16.2658 26.5169C16.8658 26.8669 17.5325 27.0336 18.1825 27.0336C18.8492 27.0336 19.4992 26.8669 20.0992 26.5169L24.9325 23.7336C26.1325 23.0336 26.8492 21.8002 26.8492 20.4002C26.8825 19.0002 26.1658 17.7502 24.9492 17.0502Z" fill="black"/>
</svg>
