<svg width="40" height="40" viewBox="0 0 40 40" fill="none" xmlns="http://www.w3.org/2000/svg">
<path d="M19.9513 36.6666C29.1562 36.6666 36.618 29.2046 36.618 19.9999C36.618 10.7952 29.1562 3.33325 19.9513 3.33325C10.7466 3.33325 3.28467 10.7952 3.28467 19.9999C3.28467 29.2046 10.7466 36.6666 19.9513 36.6666Z" fill="#F8F9FC"/>
<path d="M14.1142 14.926C14 15.2016 14 15.5511 14 16.25V23.75C14 24.4488 14 24.7984 14.1142 25.074C14.2664 25.4416 14.5584 25.7336 14.926 25.8858C15.2016 26 15.5511 26 16.25 26C16.9489 26 17.2983 26 17.574 25.8858C17.9416 25.7336 18.2336 25.4416 18.3858 25.074C18.5 24.7984 18.5 24.4488 18.5 23.75V16.25C18.5 15.5511 18.5 15.2016 18.3858 14.926C18.2336 14.5584 17.9416 14.2664 17.574 14.1142C17.2983 14 16.9489 14 16.25 14C15.5511 14 15.2016 14 14.926 14.1142C14.5584 14.2664 14.2664 14.5584 14.1142 14.926Z" fill="black"/>
<path d="M21.6142 14.926C21.5 15.2016 21.5 15.5511 21.5 16.25V23.75C21.5 24.4488 21.5 24.7984 21.6142 25.074C21.7664 25.4416 22.0585 25.7336 22.426 25.8858C22.7017 26 23.0511 26 23.75 26C24.4488 26 24.7983 26 25.074 25.8858C25.4416 25.7336 25.7336 25.4416 25.8858 25.074C26 24.7984 26 24.4488 26 23.75V16.25C26 15.5511 26 15.2016 25.8858 14.926C25.7336 14.5584 25.4416 14.2664 25.074 14.1142C24.7983 14 24.4488 14 23.75 14C23.0511 14 22.7017 14 22.426 14.1142C22.0585 14.2664 21.7664 14.5584 21.6142 14.926Z" fill="black"/>
</svg>
